{"title":"Paranormal Activity 4 2012 CAM XViD - INSPiRAL","uid":7772255,"size":1502480141,"categoryP":"video","categoryS":"movies","magnet":"?xt=urn:btih:efb2aafd07592a056c9c3cc33b2b69d9232370fe&amp;dn=Paranormal+Activity+4+2012+CAM+XViD+-+INSPiRAL&amp;tr=udp%3A%2F%2Ftracker.openbittorrent.com%3A80&amp;tr=udp%3A%2F%2Fopen.demonii.com%3A1337&amp;tr=udp%3A%2F%2Ftracker.coppersurfer.tk%3A6969&amp;tr=udp%3A%2F%2Fexodus.desync.com%3A6969","seeders":3,"leechers":0,"uploader":"Acesn8s","files":4,"time":1351558765,"description":"TITLE:\n\nParanormal Activity 4 2012 CAM XViD - INSPiRAL\n\nIMDB:\n &lt;a href=&quot;\nhttp://www.imdb.com/title/tt2109184/&quot; rel=&quot;nofollow&quot; target=&quot;_NEW&quot;&gt;\nhttp://www.imdb.com/title/tt2109184/&lt;/a&gt;\n\nSOURCES:\n\nVIDEO - HP THANKS\nAUDIO - HP THANKS\nSUBS - None Add\n\nSTATS:\n\nVideo\nID: 0\nFormat: MPEG-4 Visual\nFormat profile: Advanced Simple@L5\nFormat settings, BVOP: 2\nFormat settings, QPel: No\nFormat settings, GMC: No warppoints\nFormat settings, Matrix: Default (MPEG)\nMuxing mode: Packed bitstream\nCodec ID: XVID\nCodec ID/Hint: XviD\nDuration: 1h 22mn\nBit rate: 2 253 Kbps\nWidth: 624 pixels\nHeight: 336 pixels\nDisplay aspect ratio: 1.857\nFrame rate: 29.970 fps\nColor space: YUV\nChroma subsampling: 4:2:0\nBit depth: 8 bits\nScan type: Progressive\nCompression mode: Lossy\nBits/(Pixel*Frame): 0.359\nStream size: 1.30 GiB (94%)\nWriting library: XviD 64\n\nAudio\nID: 1\nFormat: MPEG Audio\nFormat version: Version 1\nFormat profile: Layer 3\nMode: Joint stereo\nMode extension: MS Stereo\nCodec ID: 55\nCodec ID/Hint: MP3\nDuration: 1h 22mn\nBit rate mode: Constant\nBit rate: 128 Kbps\nChannel(s): 2 channels\nSampling rate: 48.0 KHz\nCompression mode: Lossy\nStream size: 75.6 MiB (5%)\nAlignment: Split accross interleaves\nInterleave, duration: 33 ms (1.00 video frame)\nInterleave, preload duration: 500 ms\n\nNOTES:\n\nNice video by HP ...got the normal issues of borders,wrong AR,glare and colours off,quite pinky on this one.....also a small resize,BUT with some TLC ;-)\nAudio was nice,little low and some hiss on a few channels ...but for cam audio \nvery nice\n\nWORKDONE:\n\nCropped all the borders and then resize to fix AR and also upscaled it ...like normal this makes all faults stand out even more,so to correct them i had to use a HQ smoother on high settings,tweaked the rgb colours lowering the pink hue ALOT and balancing out the rest.Also slight tweak on contrast and brightness,lowered the intes to dull the glares before finally adding some sharpness back to it\nAudio stripped,dropped in AA and gave it a little boost on the DB's and also \ntweaked the eq bands to lower the hiss,before\nresaving as mp3 and resyncing to the encode\n\n\n\nEnjoy folks\n &lt;a href=&quot;\nhttp://i.imgrz.com/vIhXm.png&quot; rel=&quot;nofollow&quot; target=&quot;_NEW&quot;&gt;\nhttp://i.imgrz.com/vIhXm.png&lt;/a&gt; &lt;a href=&quot;\nhttp://i.imgrz.com/A5sT9.png&quot; rel=&quot;nofollow&quot; target=&quot;_NEW&quot;&gt;\nhttp://i.imgrz.com/A5sT9.png&lt;/a&gt; &lt;a href=&quot;\nhttp://i.imgrz.com/oGuzT.png&quot; rel=&quot;nofollow&quot; target=&quot;_NEW&quot;&gt;\nhttp://i.imgrz.com/oGuzT.png&lt;/a&gt; &lt;a href=&quot;\nhttp://i.imgrz.com/dWRy6.png&quot; rel=&quot;nofollow&quot; target=&quot;_NEW&quot;&gt;\nhttp://i.imgrz.com/dWRy6.png&lt;/a&gt; &lt;a href=&quot;\nhttp://i.imgrz.com/WCgL9.png&quot; rel=&quot;nofollow&quot; target=&quot;_NEW&quot;&gt;\nhttp://i.imgrz.com/WCgL9.png&lt;/a&gt;","torrent":{"xt":"urn:btih:efb2aafd07592a056c9c3cc33b2b69d9232370fe","amp;dn":"Paranormal+Activity+4+2012+CAM+XViD+-+INSPiRAL","amp;tr":["udp%3A%2F%2Ftracker.openbittorrent.com%3A80","udp%3A%2F%2Fopen.demonii.com%3A1337","udp%3A%2F%2Ftracker.coppersurfer.tk%3A6969","udp%3A%2F%2Fexodus.desync.com%3A6969"],"infoHash":"efb2aafd07592a056c9c3cc33b2b69d9232370fe","infoHashBuffer":{"type":"Buffer","data":[239,178,170,253,7,89,42,5,108,156,60,195,59,43,105,217,35,35,112,254]},"announce":[],"urlList":[]}}